<svg width="112" height="112" viewBox="0 0 112 112" fill="none" xmlns="http://www.w3.org/2000/svg">
<ellipse cx="55.5901" cy="55.7591" rx="55.5901" ry="55.7591" fill="url(#paint0_linear_4_66)"/>
<path d="M13.858 53V52.0925H15.5575V30.8075H13.858V29.9H19.831C20.337 29.9 20.854 30.0045 21.382 30.2135C21.91 30.4225 22.405 30.769 22.867 31.253C23.329 31.737 23.703 32.3915 23.989 33.2165C24.275 34.0305 24.418 35.0425 24.418 36.2525C24.418 37.4955 24.2695 38.579 23.9725 39.503C23.6865 40.427 23.3125 41.197 22.8505 41.813C22.3885 42.418 21.888 42.869 21.349 43.166C20.821 43.463 20.315 43.6115 19.831 43.6115H18.016V52.0925H19.699V53H13.858ZM18.016 42.704H19.2205C19.6715 42.704 20.095 42.451 20.491 41.945C20.887 41.439 21.206 40.7075 21.448 39.7505C21.701 38.7935 21.8275 37.622 21.8275 36.236C21.8275 34.927 21.712 33.8765 21.481 33.0845C21.25 32.2925 20.9475 31.715 20.5735 31.352C20.2105 30.989 19.8035 30.8075 19.3525 30.8075H18.016V42.704ZM25.8424 53V52.0925H27.3604V29.1575H25.8424V28.25H29.8189V52.0925H31.3534V53H25.8424ZM36.4019 53.3465C35.7419 53.3465 35.1534 53.187 34.6364 52.868C34.1194 52.549 33.7069 52.076 33.3989 51.449C33.1019 50.822 32.9534 50.041 32.9534 49.106C32.9534 48.072 33.1514 47.214 33.5474 46.532C33.9434 45.85 34.4329 45.278 35.0159 44.816C35.5989 44.354 36.1819 43.936 36.7649 43.562C37.3589 43.177 37.8539 42.781 38.2499 42.374C38.6459 41.967 38.8439 41.472 38.8439 40.889C38.8439 40.053 38.7834 39.3105 38.6624 38.6615C38.5414 38.0125 38.3379 37.5065 38.0519 37.1435C37.7769 36.7805 37.3919 36.599 36.8969 36.599C36.3579 36.599 35.9014 36.786 35.5274 37.16C35.1644 37.523 34.9829 37.941 34.9829 38.414C34.9829 38.667 35.0214 38.8815 35.0984 39.0575C35.1754 39.2225 35.2469 39.393 35.3129 39.569C35.3899 39.734 35.4284 39.954 35.4284 40.229C35.4284 40.625 35.3349 40.9495 35.1479 41.2025C34.9609 41.4445 34.6969 41.5655 34.3559 41.5655C34.0039 41.5655 33.7344 41.417 33.5474 41.12C33.3604 40.823 33.2669 40.4105 33.2669 39.8825C33.2669 39.0795 33.4374 38.3535 33.7784 37.7045C34.1194 37.0555 34.5924 36.5385 35.1974 36.1535C35.8024 35.7685 36.5064 35.576 37.3094 35.576C38.1014 35.576 38.7944 35.7685 39.3884 36.1535C39.9934 36.5275 40.4664 37.116 40.8074 37.919C41.1484 38.722 41.3189 39.7835 41.3189 41.1035V50.9375C41.3189 51.3995 41.3684 51.713 41.4674 51.878C41.5774 52.043 41.7314 52.1255 41.9294 52.1255C42.1054 52.1255 42.2539 52.087 42.3749 52.01C42.5069 51.933 42.6004 51.8615 42.6554 51.7955L43.1504 52.571C43.0074 52.725 42.7599 52.868 42.4079 53C42.0559 53.143 41.6489 53.2145 41.1869 53.2145C40.7469 53.2145 40.3729 53.143 40.0649 53C39.7569 52.868 39.5204 52.6755 39.3554 52.4225C39.1904 52.1695 39.0914 51.878 39.0584 51.548C39.0034 51.746 38.8769 51.988 38.6789 52.274C38.4809 52.56 38.1949 52.8075 37.8209 53.0165C37.4579 53.2365 36.9849 53.3465 36.4019 53.3465ZM37.0784 52.076C37.4524 52.076 37.7714 51.9385 38.0354 51.6635C38.2994 51.3775 38.4974 51.0365 38.6294 50.6405C38.7724 50.2335 38.8439 49.865 38.8439 49.535V42.8195C38.8109 43.1275 38.6239 43.441 38.2829 43.76C37.9529 44.068 37.5734 44.4365 37.1444 44.8655C36.7154 45.2835 36.3359 45.8115 36.0059 46.4495C35.6869 47.0765 35.5274 47.863 35.5274 48.809C35.5274 49.865 35.6539 50.6735 35.9069 51.2345C36.1709 51.7955 36.5614 52.076 37.0784 52.076ZM43.6284 53V52.0925H45.2784V36.632H43.6284V35.7245H47.7039V37.6715C47.7809 37.3855 47.9349 37.083 48.1659 36.764C48.4079 36.434 48.7269 36.1535 49.1229 35.9225C49.5189 35.6915 49.9864 35.576 50.5254 35.576C51.0424 35.576 51.5374 35.7025 52.0104 35.9555C52.4944 36.2085 52.8904 36.698 53.1984 37.424C53.5174 38.15 53.6769 39.2225 53.6769 40.6415V52.0925H55.2939V53H49.8324V52.0925H51.2019V40.922C51.2019 39.514 51.0809 38.4965 50.8389 37.8695C50.5969 37.2425 50.2119 36.929 49.6839 36.929C49.4089 36.929 49.1559 37.0335 48.9249 37.2425C48.6939 37.4515 48.4904 37.7265 48.3144 38.0675C48.1384 38.3975 48.0009 38.766 47.9019 39.173C47.8029 39.569 47.7534 39.9595 47.7534 40.3445V52.0925H49.1064V53H43.6284ZM18.379 75.3465C17.587 75.3465 16.8995 75.1045 16.3165 74.6205C15.7445 74.1365 15.277 73.4765 14.914 72.6405C14.551 71.8045 14.2815 70.8475 14.1055 69.7695C13.9405 68.6805 13.858 67.531 13.858 66.321C13.858 64.847 13.979 63.56 14.221 62.46C14.463 61.36 14.793 60.4525 15.211 59.7375C15.64 59.0115 16.1185 58.4725 16.6465 58.1205C17.1855 57.7575 17.7465 57.576 18.3295 57.576C19.0115 57.576 19.6055 57.785 20.1115 58.203C20.6285 58.61 21.052 59.1655 21.382 59.8695C21.712 60.5625 21.9595 61.3545 22.1245 62.2455C22.2895 63.1255 22.372 64.033 22.372 64.968C22.372 65.188 22.372 65.408 22.372 65.628C22.372 65.837 22.361 66.0515 22.339 66.2715H16.1515V65.3475H19.93C19.93 63.9175 19.8805 62.691 19.7815 61.668C19.6935 60.645 19.534 59.864 19.303 59.325C19.072 58.775 18.7475 58.5 18.3295 58.5C17.9335 58.5 17.587 58.7695 17.29 59.3085C17.004 59.8365 16.7785 60.6505 16.6135 61.7505C16.4485 62.8395 16.366 64.22 16.366 65.892C16.366 67.08 16.3935 68.191 16.4485 69.225C16.5145 70.248 16.63 71.1445 16.795 71.9145C16.96 72.6735 17.191 73.2675 17.488 73.6965C17.785 74.1255 18.1755 74.34 18.6595 74.34C19.3855 74.34 19.952 74.1365 20.359 73.7295C20.766 73.3225 21.0465 72.91 21.2005 72.492L21.9925 72.954C21.7725 73.581 21.3435 74.1365 20.7055 74.6205C20.0675 75.1045 19.292 75.3465 18.379 75.3465ZM23.8413 75V74.0925H25.4913V58.632H23.8413V57.7245H27.9168V59.6715C27.9938 59.3855 28.1478 59.083 28.3788 58.764C28.6208 58.434 28.9398 58.1535 29.3358 57.9225C29.7318 57.6915 30.1993 57.576 30.7383 57.576C31.2553 57.576 31.7503 57.7025 32.2233 57.9555C32.7073 58.2085 33.1033 58.698 33.4113 59.424C33.7303 60.15 33.8898 61.2225 33.8898 62.6415V74.0925H35.5068V75H30.0453V74.0925H31.4148V62.922C31.4148 61.514 31.2938 60.4965 31.0518 59.8695C30.8098 59.2425 30.4248 58.929 29.8968 58.929C29.6218 58.929 29.3688 59.0335 29.1378 59.2425C28.9068 59.4515 28.7033 59.7265 28.5273 60.0675C28.3513 60.3975 28.2138 60.766 28.1148 61.173C28.0158 61.569 27.9663 61.9595 27.9663 62.3445V74.0925H29.3193V75H23.8413ZM40.603 75.297C40.141 75.297 39.6955 75.2145 39.2665 75.0495C38.8485 74.8955 38.502 74.593 38.227 74.142C37.963 73.691 37.831 73.0365 37.831 72.1785V58.632H35.8345V57.7245H37.831C38.084 57.5155 38.315 57.1635 38.524 56.6685C38.733 56.1735 38.909 55.6015 39.052 54.9525C39.195 54.3035 39.294 53.6545 39.349 53.0055H40.306V57.7245H42.6655V58.632H40.306V73.2015C40.306 73.6415 40.3995 73.9385 40.5865 74.0925C40.7735 74.2465 40.9605 74.3235 41.1475 74.3235C41.3675 74.3235 41.5655 74.274 41.7415 74.175C41.9175 74.076 42.044 73.977 42.121 73.878L42.649 74.5875C42.44 74.7855 42.1595 74.9505 41.8075 75.0825C41.4555 75.2255 41.054 75.297 40.603 75.297ZM45.6878 75.3795C45.2258 75.3795 44.8243 75.209 44.4833 74.868C44.1533 74.527 43.9883 74.12 43.9883 73.647C43.9883 73.163 44.1533 72.756 44.4833 72.426C44.8243 72.096 45.2258 71.931 45.6878 71.931C46.1608 71.931 46.5623 72.096 46.8923 72.426C47.2333 72.756 47.4038 73.163 47.4038 73.647C47.4038 74.12 47.2333 74.527 46.8923 74.868C46.5623 75.209 46.1608 75.3795 45.6878 75.3795Z" fill="black"/>
<defs>
<linearGradient id="paint0_linear_4_66" x1="100.087" y1="8.90168" x2="-18.3866" y2="138.112" gradientUnits="userSpaceOnUse">
<stop stop-color="#8D1BFF"/>
<stop offset="1" stop-color="#FFA2C4" stop-opacity="0"/>
</linearGradient>
</defs>
</svg>
